#!OML:ASF H:\Not Pregnant\Project 1\Capture day 1\Session 1\non-pregnant.ASF
:FULLY-SPECIFIED
:DEGREES
626
root 2.61584 16.3962 -12.2407 -176.962 74.4809 -189.749
lowerback -8.98125 -0.42377 -0.399387
upperback -3.65074 -0.412134 0.982075
thorax 1.26427 -0.138013 1.19794
lowerneck 41.9908 -14.0672 -31.4658
upperneck -24.91 -26.2441 47.469
head -0.920289 -18.129 26.2053
rclavicle -1.08089e-014 -3.33958e-014
rhumerus -18.5885 2.95811 -91.4683
rradius 22.1026
rwrist 29.9495
rhand -24.8874 -8.14377
rfingers 7.12502
rthumb 1.62027 -38.1174
lclavicle -1.08089e-014 -3.33958e-014
lhumerus -39.9252 -8.53771 97.7861
lradius 37.8342
lwrist 45.8849
lhand -15.0398 -9.21082
lfingers 7.12502
lthumb 11.1264 20.4742
rfemur -40.3986 -4.18382 28.2718
rtibia 35.5446
rfoot -7.33402 -1.25299
rtoes -5.73786
lfemur -0.911508 8.22988 -22.5116
ltibia 26.6314
lfoot -12.2476 -2.10967
ltoes -46.3433
627
root 2.71853 16.4138 -12.2617 -176.6 74.4954 -189.367
lowerback -9.16314 -0.608705 -0.187001
upperback -3.68933 -0.675654 1.23132
thorax 1.33095 -0.267489 1.30866
lowerneck 41.9613 -14.1084 -31.3738
upperneck -25.017 -26.1934 47.4936
head -0.977972 -18.1067 26.2431
rclavicle 9.14409e-015 7.15625e-015
rhumerus -18.7752 2.70101 -90.685
rradius 22.5262
rwrist 28.4913
rhand -24.9603 -9.1269
rfingers 7.12502
rthumb 1.54993 -39.101
lclavicle 9.14409e-015 7.15625e-015
lhumerus -40.3704 -10.7932 99.0413
lradius 37.7137
lwrist 44.7305
lhand -12.96 -9.13775
lfingers 7.12502
lthumb 13.1317 20.4288
rfemur -39.8523 -4.36554 28.4536
rtibia 35.3646
rfoot -7.73093 -1.15784
rtoes -5.57114
lfemur -1.74572 8.38545 -22.091
ltibia 28.5976
lfoot -11.2144 -3.52128
ltoes -46.0361
628
root 2.8202 16.4309 -12.2819 -176.088 74.515 -188.85
lowerback -9.34351 -0.783798 0.05072
upperback -3.74062 -0.92805 1.49378
thorax 1.38339 -0.39073 1.41903
lowerneck 41.9241 -14.162 -31.2685
upperneck -25.1385 -26.1495 47.4936
head -1.04477 -18.0831 26.2566
rclavicle 1.65737e-014 -1.90833e-014
rhumerus -18.9983 2.65515 -89.8991
rradius 23.0496
rwrist 26.6252
rhand -24.8196 -9.81817
rfingers 7.12502
rthumb 1.68579 -39.7913
lclavicle 1.65737e-014 -1.90833e-014
lhumerus -40.8829 -13.0924 100.352
lradius 37.6768
lwrist 43.7109
lhand -10.9488 -9.26309
lfingers 7.12502
lthumb 15.0698 20.1684
rfemur -39.3179 -4.56078 28.6836
rtibia 35.1497
rfoot -8.10328 -1.02208
rtoes -5.34057
lfemur -2.67158 8.51389 -21.6182
ltibia 30.6277
lfoot -9.96698 -4.99972
ltoes -45.4443
629
root 2.91984 16.4469 -12.3013 -175.453 74.572 -188.217
lowerback -9.501 -0.946129 0.320612
upperback -3.80299 -1.16598 1.76802
thorax 1.41108 -0.506246 1.52454
lowerneck 41.8664 -14.2126 -31.1767
upperneck -25.2553 -26.1095 47.4754
head -1.1082 -18.056 26.2513
rclavicle -2.14439e-014 1.90833e-014
rhumerus -19.2389 2.76041 -89.1167
rradius 23.6401
rwrist 24.4906
rhand -24.4546 -10.2411
rfingers 7.12502
rthumb 2.03833 -40.2111
lclavicle -2.14439e-014 1.90833e-014
lhumerus -41.4562 -15.3758 101.696
lradius 37.7117
lwrist 42.7859
lhand -9.10791 -9.53116
lfingers 7.12502
lthumb 16.8426 19.7584
rfemur -38.7964 -4.76747 28.9618
rtibia 34.9131
rfoot -8.45732 -0.811347
rtoes -5.0393
lfemur -3.66687 8.64577 -21.1044
ltibia 32.6989
lfoot -8.49073 -6.4898
ltoes -44.5562
630
root 3.01665 16.4611 -12.321 -174.75 74.6859 -187.509
lowerback -9.62232 -1.08299 0.623141
upperback -3.86997 -1.37245 2.0434
thorax 1.41248 -0.605917 1.61627
lowerneck 41.804 -14.2685 -31.0761
upperneck -25.3874 -26.0701 47.4397
head -1.18136 -18.0256 26.2324
rclavicle 1.27968e-015 2.06736e-014
rhumerus -19.4826 2.93805 -88.3271
rradius 24.2757
rwrist 22.1969
rhand -23.8507 -10.3854
rfingers 7.12502
rthumb 2.62154 -40.349
lclavicle 1.27968e-015 2.06736e-014
lhumerus -42.1141 -17.6946 103.105
lradius 37.853
lwrist 42.0153
lhand -7.62973 -9.90386
lfingers 7.12502
lthumb 18.2651 19.2586
rfemur -38.2834 -4.98802 29.2718
rtibia 34.6678
rfoot -8.79972 -0.505868
rtoes -4.69439
lfemur -4.70352 8.74703 -20.5782
ltibia 34.7874
lfoot -6.77674 -7.91436
ltoes -43.2027
631
root 3.10938 16.473 -12.3398 -173.976 74.8974 -186.727
lowerback -9.68964 -1.18504 0.954463
upperback -3.94543 -1.53365 2.31857
thorax 1.37325 -0.682937 1.6973
lowerneck 41.7524 -14.2328 -31.1903
upperneck -24.9044 -26.4645 46.4521
head -1.29542 -17.9845 27.3283
rclavicle -3.33958e-014 -2.38542e-014
rhumerus -19.7294 3.20035 -87.5269
rradius 24.9535
rwrist 19.8181
rhand -22.9908 -10.3253
rfingers 7.12502
rthumb 3.45201 -40.2771
lclavicle -3.33958e-014 -2.38542e-014
lhumerus -42.8525 -19.9956 104.554
lradius 38.0909
lwrist 41.356
lhand -6.5627 -10.3949
lfingers 7.12502
lthumb 19.2914 18.6682
rfemur -37.7865 -5.17405 29.6083
rtibia 34.4193
rfoot -9.12327 -0.112905
rtoes -4.31476
lfemur -5.77346 8.8688 -20.0432
ltibia 36.8755
lfoot -4.90322 -9.23103
ltoes -41.4645
632
root 3.19801 16.4828 -12.3586 -173.156 75.1635 -185.89
lowerback -9.70316 -1.27209 1.31058
upperback -4.02376 -1.6751 2.59064
thorax 1.29981 -0.750376 1.76448
lowerneck 41.6835 -14.2649 -31.1179
upperneck -25.0387 -26.413 46.4211
head -1.36883 -17.945 27.3134
rclavicle 3.82785e-014 -1.03368e-014
rhumerus -19.9612 3.51502 -86.7194
rradius 25.645
rwrist 17.4961
rhand -21.8943 -10.1243
rfingers 7.12502
rthumb 4.51086 -40.0563
lclavicle 3.82785e-014 -1.03368e-014
lhumerus -43.6572 -22.2242 106.011
lradius 38.4288
lwrist 40.8078
lhand -5.9193 -11.0145
lfingers 7.12502
lthumb 19.9099 17.9857
rfemur -37.2987 -5.35208 29.9558
rtibia 34.1715
rfoot -9.43332 0.344895
rtoes -3.92554
lfemur -6.86118 8.95876 -19.5097
ltibia 38.9456
lfoot -2.99467 -10.4217
ltoes -39.4303
633
root 3.2827 16.4905 -12.3773 -172.26 75.4888 -184.965
lowerback -9.66585 -1.33291 1.70423
upperback -4.0996 -1.78245 2.84831
thorax 1.19811 -0.801567 1.80066
lowerneck 41.6221 -14.2974 -31.0329
upperneck -25.1812 -26.355 46.3954
head -1.44989 -17.9038 27.3091
rclavicle -1.99157e-014 -2.3059e-014
rhumerus -20.1722 3.84591 -85.9008
rradius 26.3372
rwrist 15.3142
rhand -20.5813 -9.81982
rfingers 7.12502
rthumb 5.77861 -39.721
lclavicle -1.99157e-014 -2.3059e-014
lhumerus -44.5148 -24.3655 107.447
lradius 38.866
lwrist 40.3556
lhand -5.67886 -11.7717
lfingers 7.12502
lthumb 20.141 17.2043
rfemur -36.8132 -5.51095 30.3171
rtibia 33.9226
rfoot -9.72921 0.8554
rtoes -3.54921
lfemur -7.95474 9.01196 -18.9746
ltibia 40.9869
lfoot -1.19807 -11.508
ltoes -37.2796
634
root 3.36321 16.4964 -12.3953 -171.277 75.8605 -183.952
lowerback -9.58475 -1.37316 2.1214
upperback -4.17484 -1.86124 3.09048
thorax 1.07049 -0.839328 1.81197
lowerneck 41.5706 -14.3364 -30.9236
upperneck -25.3351 -26.2909 46.3745
head -1.54217 -17.8618 27.3131
rclavicle 1.10636e-014 0
rhumerus -20.3531 4.17402 -85.0758
rradius 27.0069
rwrist 13.3668
rhand -19.0865 -9.41789
rfingers 7.12502
rthumb 7.22167 -39.2747
lclavicle 1.10636e-014 0
lhumerus -45.386 -26.348 108.808
lradius 39.3809
lwrist 39.9227
lhand -5.79359 -12.6632
lfingers 7.12502
lthumb 20.0308 16.3243
rfemur -36.3424 -5.63543 30.6885
rtibia 33.675
rfoot -10.0069 1.38445
rtoes -3.21425
lfemur -9.06297 9.03137 -18.4355
ltibia 42.986
lfoot 0.33898 -12.5436
ltoes -35.3444
635
root 3.43995 16.5008 -12.4122 -170.214 76.2719 -182.859
lowerback -9.4642 -1.39978 2.54714
upperback -4.24731 -1.91912 3.31873
thorax 0.922275 -0.867553 1.80759
lowerneck 41.5239 -14.3816 -30.7883
upperneck -25.4968 -26.2187 46.3556
head -1.64595 -17.8172 27.3223
rclavicle 2.00586e-014 -6.20208e-014
rhumerus -20.4923 4.49446 -84.2548
rradius 27.6285
rwrist 11.7084
rhand -17.4749 -8.93703
rfingers 7.12502
rthumb 8.77706 -38.7345
lclavicle 2.00586e-014 -6.20208e-014
lhumerus -46.2344 -28.1184 110.046
lradius 39.959
lwrist 39.4237
lhand -6.20085 -13.6332
lfingers 7.12502
lthumb 19.6393 15.3948
rfemur -35.8849 -5.7084 31.0596
rtibia 33.4321
rfoot -10.2673 1.90284
rtoes -2.92791
lfemur -10.1809 9.01692 -17.8958
ltibia 44.9294
lfoot 1.52278 -13.5556
ltoes -33.8846
636
root 3.51358 16.5039 -12.429 -169.104 76.6981 -181.712
lowerback -9.30429 -1.42082 2.97866
upperback -4.31167 -1.96659 3.52967
thorax 0.759262 -0.891756 1.78441
lowerneck 41.4781 -14.4352 -30.6241
upperneck -25.6638 -26.1386 46.3389
head -1.76027 -17.7701 27.3348
rclavicle -1.56791e-014 -1.59028e-014
rhumerus -20.5845 4.81199 -83.4444
rradius 28.1882
rwrist 10.3499
rhand -15.7592 -8.35242
rfingers 7.12502
rthumb 10.4325 -38.0736
lclavicle -1.56791e-014 -1.59028e-014
lhumerus -47.0138 -29.6282 111.112
lradius 40.5668
lwrist 38.7393
lhand -6.85676 -14.6149
lfingers 7.12502
lthumb 19.0086 14.4763
rfemur -35.4295 -5.73408 31.4143
rtibia 33.2012
rfoot -10.5158 2.37946
rtoes -2.69758
lfemur -11.2919 8.9548 -17.3629
ltibia 46.8004
lfoot 2.30477 -14.5165
ltoes -33.0676
637
root 3.58485 16.5053 -12.4448 -167.974 77.1644 -180.538
lowerback -9.11199 -1.43358 3.38042
upperback -4.36645 -1.99726 3.73493
thorax 0.58852 -0.908197 1.77481
lowerneck 41.436 -14.4909 -30.4452
upperneck -25.8475 -26.0513 46.3224
head -1.88616 -17.7199 27.3535
rclavicle 1.78782e-014 1.27222e-014
rhumerus -20.6324 5.16968 -82.6405
rradius 28.6849
rwrist 9.2748
rhand -14.0073 -7.6865
rfingers 7.12502
rthumb 12.1221 -37.3153
lclavicle 1.78782e-014 1.27222e-014
lhumerus -47.6808 -30.8366 111.984
lradius 41.1766
lwrist 37.7909
lhand -7.72419 -15.5045
lfingers 7.12502
lthumb 18.1742 13.6664
rfemur -34.9765 -5.67821 31.7386
rtibia 32.9914
rfoot -10.7551 2.80062
rtoes -2.51631
lfemur -12.3851 8.87736 -16.8517
ltibia 48.5817
lfoot 2.68256 -15.3673
ltoes -32.9045
638
root 3.65501 16.5055 -12.4602 -166.861 77.6831 -179.366
lowerback -8.89637 -1.42728 3.74841
upperback -4.4038 -1.99801 3.91842
thorax 0.422985 -0.910531 1.76501
lowerneck 41.4047 -14.5608 -30.2301
upperneck -26.0454 -25.9598 46.3102
head -2.02595 -17.6704 27.3775
rclavicle -2.88486e-014 -1.59028e-014
rhumerus -20.6354 5.53285 -81.857
rradius 29.1038
rwrist 8.49117
rhand -12.2881 -6.94661
rfingers 7.12502
rthumb 13.7793 -36.4703
lclavicle -2.88486e-014 -1.59028e-014
lhumerus -48.2168 -31.7626 112.629
lradius 41.7643
lwrist 36.5913
lhand -8.73344 -16.247
lfingers 7.12502
lthumb 17.203 13.0116
rfemur -34.5116 -5.53529 32.0183
rtibia 32.8087
rfoot -10.9939 3.16305
rtoes -2.37515
lfemur -13.437 8.81693 -16.3719
ltibia 50.2567
lfoot 2.74233 -16.0384
ltoes -33.067
639
root 3.72431 16.5043 -12.4745 -165.791 78.259 -178.226
lowerback -8.66024 -1.40329 4.0573
upperback -4.42601 -1.96909 4.0857
thorax 0.263311 -0.898335 1.77446
lowerneck 41.3872 -14.6383 -29.9931
upperneck -26.2608 -25.8642 46.3091
head -2.17633 -17.6225 27.417
rclavicle -9.40811e-015 -7.15625e-014
rhumerus -20.6012 5.94059 -81.0877
rradius 29.4562
rwrist 7.94487
rhand -10.6637 -6.14324
rfingers 7.12502
rthumb 15.3444 -35.5539
lclavicle -9.40811e-015 -7.15625e-014
lhumerus -48.6036 -32.4077 113.044
lradius 42.318
lwrist 35.2351
lhand -9.8036 -16.824
lfingers 7.12502
lthumb 16.1728 12.5213
rfemur -34.0403 -5.30618 32.2484
rtibia 32.6555
rfoot -11.234 3.46965
rtoes -2.26609
lfemur -14.4477 8.79278 -15.9351
ltibia 51.8141
lfoot 2.54688 -16.4816
ltoes -33.3995
